<mxfile host="app.diagrams.net" modified="2023-04-17T19:35:39.105Z" agent="5.0 (Windows NT 10.0; Win64; x64) AppleWebKit/537.36 (KHTML, like Gecko) Chrome/107.0.0.0 Safari/537.36" etag="dJ3E_tVwHzxB4LZLkDR3" version="20.4.0" type="github" pages="2">
  <diagram id="rIkbeCnowxgNKXRENkBx" name="第 1 页">
    <mxGraphModel dx="716" dy="476" grid="0" gridSize="10" guides="1" tooltips="1" connect="1" arrows="1" fold="1" page="1" pageScale="1" pageWidth="827" pageHeight="1169" math="0" shadow="0">
      <root>
        <mxCell id="0" />
        <mxCell id="1" parent="0" />
        <mxCell id="Hkmc3YgE72z5YMWXdEOs-1" value="普乐智慧物业管理系统" style="shape=rect;html=1;verticalAlign=top;fontStyle=1;whiteSpace=wrap;align=center;" vertex="1" parent="1">
          <mxGeometry x="208" y="86" width="349" height="348" as="geometry" />
        </mxCell>
        <mxCell id="Hkmc3YgE72z5YMWXdEOs-9" style="rounded=0;orthogonalLoop=1;jettySize=auto;html=1;entryX=0;entryY=0.5;entryDx=0;entryDy=0;" edge="1" parent="1" source="Hkmc3YgE72z5YMWXdEOs-2" target="Hkmc3YgE72z5YMWXdEOs-5">
          <mxGeometry relative="1" as="geometry" />
        </mxCell>
        <mxCell id="Hkmc3YgE72z5YMWXdEOs-10" style="edgeStyle=none;rounded=0;orthogonalLoop=1;jettySize=auto;html=1;entryX=0;entryY=0.5;entryDx=0;entryDy=0;" edge="1" parent="1" source="Hkmc3YgE72z5YMWXdEOs-2" target="Hkmc3YgE72z5YMWXdEOs-6">
          <mxGeometry relative="1" as="geometry" />
        </mxCell>
        <mxCell id="Hkmc3YgE72z5YMWXdEOs-11" style="edgeStyle=none;rounded=0;orthogonalLoop=1;jettySize=auto;html=1;entryX=0;entryY=0.5;entryDx=0;entryDy=0;" edge="1" parent="1" source="Hkmc3YgE72z5YMWXdEOs-2" target="Hkmc3YgE72z5YMWXdEOs-7">
          <mxGeometry relative="1" as="geometry" />
        </mxCell>
        <mxCell id="Hkmc3YgE72z5YMWXdEOs-12" style="edgeStyle=none;rounded=0;orthogonalLoop=1;jettySize=auto;html=1;entryX=0;entryY=0.5;entryDx=0;entryDy=0;" edge="1" parent="1" source="Hkmc3YgE72z5YMWXdEOs-2" target="Hkmc3YgE72z5YMWXdEOs-8">
          <mxGeometry relative="1" as="geometry" />
        </mxCell>
        <mxCell id="Hkmc3YgE72z5YMWXdEOs-14" style="edgeStyle=none;rounded=0;orthogonalLoop=1;jettySize=auto;html=1;entryX=0;entryY=0.5;entryDx=0;entryDy=0;" edge="1" parent="1" source="Hkmc3YgE72z5YMWXdEOs-2" target="Hkmc3YgE72z5YMWXdEOs-13">
          <mxGeometry relative="1" as="geometry" />
        </mxCell>
        <mxCell id="Hkmc3YgE72z5YMWXdEOs-2" value="业主" style="shape=umlActor;html=1;verticalLabelPosition=bottom;verticalAlign=top;align=center;" vertex="1" parent="1">
          <mxGeometry x="118" y="220" width="30" height="60" as="geometry" />
        </mxCell>
        <mxCell id="Hkmc3YgE72z5YMWXdEOs-5" value="登录" style="ellipse;whiteSpace=wrap;html=1;" vertex="1" parent="1">
          <mxGeometry x="328" y="129" width="95" height="45" as="geometry" />
        </mxCell>
        <mxCell id="Hkmc3YgE72z5YMWXdEOs-6" value="报修" style="ellipse;whiteSpace=wrap;html=1;" vertex="1" parent="1">
          <mxGeometry x="328" y="190" width="95" height="45" as="geometry" />
        </mxCell>
        <mxCell id="Hkmc3YgE72z5YMWXdEOs-7" value="投诉" style="ellipse;whiteSpace=wrap;html=1;" vertex="1" parent="1">
          <mxGeometry x="328" y="256" width="95" height="45" as="geometry" />
        </mxCell>
        <mxCell id="Hkmc3YgE72z5YMWXdEOs-8" value="个人信息" style="ellipse;whiteSpace=wrap;html=1;" vertex="1" parent="1">
          <mxGeometry x="328" y="375" width="95" height="45" as="geometry" />
        </mxCell>
        <mxCell id="Hkmc3YgE72z5YMWXdEOs-13" value="车位信息" style="ellipse;whiteSpace=wrap;html=1;" vertex="1" parent="1">
          <mxGeometry x="326" y="316" width="95" height="45" as="geometry" />
        </mxCell>
      </root>
    </mxGraphModel>
  </diagram>
  <diagram id="f1EM5GFbO70d2GMtLPYb" name="第 2 页">
    <mxGraphModel dx="716" dy="442" grid="0" gridSize="10" guides="1" tooltips="1" connect="1" arrows="1" fold="1" page="1" pageScale="1" pageWidth="827" pageHeight="1169" math="0" shadow="0">
      <root>
        <mxCell id="0" />
        <mxCell id="1" parent="0" />
        <mxCell id="rC3h6kMHCw1naXh93Rfr-1" value="普乐智慧物业管理系统" style="shape=rect;html=1;verticalAlign=top;fontStyle=1;whiteSpace=wrap;align=center;" vertex="1" parent="1">
          <mxGeometry x="208" y="86" width="349" height="681" as="geometry" />
        </mxCell>
        <mxCell id="rC3h6kMHCw1naXh93Rfr-2" style="rounded=0;orthogonalLoop=1;jettySize=auto;html=1;entryX=0;entryY=0.5;entryDx=0;entryDy=0;" edge="1" parent="1" source="rC3h6kMHCw1naXh93Rfr-7" target="rC3h6kMHCw1naXh93Rfr-8">
          <mxGeometry relative="1" as="geometry" />
        </mxCell>
        <mxCell id="rC3h6kMHCw1naXh93Rfr-3" style="edgeStyle=none;rounded=0;orthogonalLoop=1;jettySize=auto;html=1;entryX=0;entryY=0.5;entryDx=0;entryDy=0;" edge="1" parent="1" source="rC3h6kMHCw1naXh93Rfr-7" target="rC3h6kMHCw1naXh93Rfr-9">
          <mxGeometry relative="1" as="geometry" />
        </mxCell>
        <mxCell id="rC3h6kMHCw1naXh93Rfr-4" style="edgeStyle=none;rounded=0;orthogonalLoop=1;jettySize=auto;html=1;entryX=0;entryY=0.5;entryDx=0;entryDy=0;" edge="1" parent="1" source="rC3h6kMHCw1naXh93Rfr-7" target="rC3h6kMHCw1naXh93Rfr-10">
          <mxGeometry relative="1" as="geometry" />
        </mxCell>
        <mxCell id="rC3h6kMHCw1naXh93Rfr-5" style="edgeStyle=none;rounded=0;orthogonalLoop=1;jettySize=auto;html=1;entryX=0;entryY=0.5;entryDx=0;entryDy=0;" edge="1" parent="1" source="rC3h6kMHCw1naXh93Rfr-7" target="rC3h6kMHCw1naXh93Rfr-11">
          <mxGeometry relative="1" as="geometry" />
        </mxCell>
        <mxCell id="rC3h6kMHCw1naXh93Rfr-6" style="edgeStyle=none;rounded=0;orthogonalLoop=1;jettySize=auto;html=1;entryX=0;entryY=0.5;entryDx=0;entryDy=0;" edge="1" parent="1" source="rC3h6kMHCw1naXh93Rfr-7" target="rC3h6kMHCw1naXh93Rfr-12">
          <mxGeometry relative="1" as="geometry" />
        </mxCell>
        <mxCell id="rC3h6kMHCw1naXh93Rfr-35" style="edgeStyle=none;rounded=0;orthogonalLoop=1;jettySize=auto;html=1;entryX=0;entryY=0.5;entryDx=0;entryDy=0;" edge="1" parent="1" source="rC3h6kMHCw1naXh93Rfr-7" target="rC3h6kMHCw1naXh93Rfr-28">
          <mxGeometry relative="1" as="geometry" />
        </mxCell>
        <mxCell id="rC3h6kMHCw1naXh93Rfr-36" style="edgeStyle=none;rounded=0;orthogonalLoop=1;jettySize=auto;html=1;entryX=0;entryY=0.5;entryDx=0;entryDy=0;" edge="1" parent="1" source="rC3h6kMHCw1naXh93Rfr-7" target="rC3h6kMHCw1naXh93Rfr-29">
          <mxGeometry relative="1" as="geometry" />
        </mxCell>
        <mxCell id="rC3h6kMHCw1naXh93Rfr-37" style="edgeStyle=none;rounded=0;orthogonalLoop=1;jettySize=auto;html=1;entryX=0;entryY=0.5;entryDx=0;entryDy=0;" edge="1" parent="1" source="rC3h6kMHCw1naXh93Rfr-7" target="rC3h6kMHCw1naXh93Rfr-30">
          <mxGeometry relative="1" as="geometry" />
        </mxCell>
        <mxCell id="rC3h6kMHCw1naXh93Rfr-38" style="edgeStyle=none;rounded=0;orthogonalLoop=1;jettySize=auto;html=1;entryX=0;entryY=0.5;entryDx=0;entryDy=0;" edge="1" parent="1" source="rC3h6kMHCw1naXh93Rfr-7" target="rC3h6kMHCw1naXh93Rfr-31">
          <mxGeometry relative="1" as="geometry" />
        </mxCell>
        <mxCell id="rC3h6kMHCw1naXh93Rfr-39" style="edgeStyle=none;rounded=0;orthogonalLoop=1;jettySize=auto;html=1;entryX=0.039;entryY=0.326;entryDx=0;entryDy=0;entryPerimeter=0;" edge="1" parent="1" source="rC3h6kMHCw1naXh93Rfr-7" target="rC3h6kMHCw1naXh93Rfr-33">
          <mxGeometry relative="1" as="geometry" />
        </mxCell>
        <mxCell id="rC3h6kMHCw1naXh93Rfr-40" style="edgeStyle=none;rounded=0;orthogonalLoop=1;jettySize=auto;html=1;entryX=-0.004;entryY=0.311;entryDx=0;entryDy=0;entryPerimeter=0;" edge="1" parent="1" source="rC3h6kMHCw1naXh93Rfr-7" target="rC3h6kMHCw1naXh93Rfr-34">
          <mxGeometry relative="1" as="geometry" />
        </mxCell>
        <mxCell id="rC3h6kMHCw1naXh93Rfr-7" value="管理员" style="shape=umlActor;html=1;verticalLabelPosition=bottom;verticalAlign=top;align=center;" vertex="1" parent="1">
          <mxGeometry x="107" y="392" width="30" height="60" as="geometry" />
        </mxCell>
        <mxCell id="rC3h6kMHCw1naXh93Rfr-8" value="登录" style="ellipse;whiteSpace=wrap;html=1;" vertex="1" parent="1">
          <mxGeometry x="328" y="129" width="95" height="45" as="geometry" />
        </mxCell>
        <mxCell id="rC3h6kMHCw1naXh93Rfr-9" value="楼宇管理" style="ellipse;whiteSpace=wrap;html=1;" vertex="1" parent="1">
          <mxGeometry x="328" y="190" width="95" height="45" as="geometry" />
        </mxCell>
        <mxCell id="rC3h6kMHCw1naXh93Rfr-10" value="房屋管理" style="ellipse;whiteSpace=wrap;html=1;" vertex="1" parent="1">
          <mxGeometry x="328" y="249" width="95" height="45" as="geometry" />
        </mxCell>
        <mxCell id="rC3h6kMHCw1naXh93Rfr-11" value="财务管理" style="ellipse;whiteSpace=wrap;html=1;" vertex="1" parent="1">
          <mxGeometry x="328" y="373" width="95" height="45" as="geometry" />
        </mxCell>
        <mxCell id="rC3h6kMHCw1naXh93Rfr-12" value="业主管理" style="ellipse;whiteSpace=wrap;html=1;" vertex="1" parent="1">
          <mxGeometry x="328" y="311" width="95" height="45" as="geometry" />
        </mxCell>
        <mxCell id="rC3h6kMHCw1naXh93Rfr-28" value="车位管理" style="ellipse;whiteSpace=wrap;html=1;" vertex="1" parent="1">
          <mxGeometry x="328" y="432" width="95" height="45" as="geometry" />
        </mxCell>
        <mxCell id="rC3h6kMHCw1naXh93Rfr-29" value="物业缴费管理" style="ellipse;whiteSpace=wrap;html=1;" vertex="1" parent="1">
          <mxGeometry x="330" y="491" width="95" height="45" as="geometry" />
        </mxCell>
        <mxCell id="rC3h6kMHCw1naXh93Rfr-30" value="抄表管理" style="ellipse;whiteSpace=wrap;html=1;" vertex="1" parent="1">
          <mxGeometry x="330" y="544" width="95" height="45" as="geometry" />
        </mxCell>
        <mxCell id="rC3h6kMHCw1naXh93Rfr-31" value="报修管理" style="ellipse;whiteSpace=wrap;html=1;" vertex="1" parent="1">
          <mxGeometry x="335" y="600" width="95" height="45" as="geometry" />
        </mxCell>
        <mxCell id="rC3h6kMHCw1naXh93Rfr-33" value="投诉管理" style="ellipse;whiteSpace=wrap;html=1;" vertex="1" parent="1">
          <mxGeometry x="335" y="658" width="95" height="45" as="geometry" />
        </mxCell>
        <mxCell id="rC3h6kMHCw1naXh93Rfr-34" value="用户管理" style="ellipse;whiteSpace=wrap;html=1;" vertex="1" parent="1">
          <mxGeometry x="335" y="714" width="95" height="45" as="geometry" />
        </mxCell>
      </root>
    </mxGraphModel>
  </diagram>
</mxfile>
